<svg xmlns="http://www.w3.org/2000/svg" width="512" height="512" viewBox="0 0 512 512" role="img" aria-labelledby="title desc">
  <title id="title">CoLUI app icon</title>
  <desc id="desc">Two linked container layers on a violet tile.</desc>
  <rect width="512" height="512" rx="112" fill="#171224"/>
  <g transform="translate(96 96) scale(13.333333)" fill="none" stroke="#AB91E8" stroke-width="2" stroke-linecap="round" stroke-linejoin="round">
    <path d="M19 8.268a2 2 0 0 1 1 1.732v8a2 2 0 0 1 -2 2h-8a2 2 0 0 1 -2 -2v-8a2 2 0 0 1 2 -2h3"/>
    <path d="M5 15.734a2 2 0 0 1 -1 -1.734v-8a2 2 0 0 1 2 -2h8a2 2 0 0 1 2 2v8a2 2 0 0 1 -2 2h-3"/>
  </g>
</svg>
